PathFileType	4	(X/Y/Z)	Patient4_TMGait_0pt5_02_right_13.trc.trc
DataRate	CameraRate	NumFrames	NumMarkers	Units	OrigDataRate	OrigDataStartFrame	OrigNumFrames
76.086956521739	76.086956521739	4	33	mm	76.086956521739	106	       141
Frame#	Time	Sacral			L.Shoulder			Chest			R.Shoulder			Neck			R.ASIS			L.ASIS			R.Thigh.Superior			R.Thigh.Lateral			R.Thigh.Inferior			R.Patella			L.Thigh.Superior			L.Thigh.Lateral			L.Thigh.Inferior			L.Patella			L.Shank.Superior			L.Shank.Lateral			L.Shank.Inferior			R.Shank.Superior			R.Shank.Lateral			R.Shank.Inferior			R.Heel			R.Midfoot.Superior			R.Midfoot.Lateral			R.Toe			L.Heel			L.Midfoot.Lateral			L.Midfoot.Superior			L.Toe			L.Elbow			L.Wrist			R.Elbow			R.Wrist			
		X1	Y1	Z1	X2	Y2	Z2	X3	Y3	Z3	X4	Y4	Z4	X5	Y5	Z5	X6	Y6	Z6	X7	Y7	Z7	X8	Y8	Z8	X9	Y9	Z9	X10	Y10	Z10	X11	Y11	Z11	X12	Y12	Z12	X13	Y13	Z13	X14	Y14	Z14	X15	Y15	Z15	X16	Y16	Z16	X17	Y17	Z17	X18	Y18	Z18	X19	Y19	Z19	X20	Y20	Z20	X21	Y21	Z21	X22	Y22	Z22	X23	Y23	Z23	X24	Y24	Z24	X25	Y25	Z25	X26	Y26	Z26	X27	Y27	Z27	X28	Y28	Z28	X29	Y29	Z29	X30	Y30	Z30	X31	Y31	Z31	X32	Y32	Z32	X33	Y33	Z33	

106	18.390000000000	599.587394884284	1017.366608671012	453.986990043249	809.364626052298	1436.646311782645	280.790828739834	892.930257511195	1364.177465545885	451.865297054281	796.019046817022	1442.822138151608	617.244280336916	795.808513314523	1499.921659804528	430.365697974183	817.665980680654	950.177987774845	586.282675790227	824.106754492379	962.247574808226	311.295864162751	902.161603880462	784.837889824684	562.212474410990	862.916844877106	664.079436734696	635.259930149184	956.344076967580	624.189762118160	560.699404269276	976.928314340391	511.418310117963	585.276598273989	856.505010987532	747.111751475200	342.218568716080	762.250930528210	637.332260377851	283.840217961537	839.062735118469	555.165337138083	350.123067846673	834.515751499284	485.643101678671	361.855185655054	806.059044524144	415.691131683493	353.636520381240	715.239262990156	303.990046266286	300.520424088090	757.619561834404	192.755140790648	376.123471683749	903.141870340221	434.603191075855	589.166000986078	782.805373326266	389.862567414123	647.132299517889	772.370565341890	281.254073513079	597.075496893187	573.410301236792	213.887601349068	568.116386973761	743.858012990093	159.213408635344	605.322402618442	634.230456474118	153.048250505051	639.292409343972	812.239403789777	47.897908613922	628.240470414342	621.033950755156	39.128074307041	415.338126331518	697.674902050122	35.432606040778	337.285361046065	781.178431497994	95.638628023220	365.921605378294	909.654006592173	40.665996882723	342.071013569984	852.158819336088	1095.750224177930	137.776375170076	1066.000377883714	944.817459468964	134.618112934348	655.588137054654	1124.972355308603	721.681401952388	635.182667211498	864.204475550937	726.983671345129	
107	18.403142857143	598.187335266471	1017.883593431685	453.519514034322	810.370072062146	1436.572420966604	281.086414605146	892.304750346136	1364.272644052679	452.994748007346	794.188837565083	1443.501941475318	617.271043254975	795.504925834500	1500.071123447807	430.431340452850	815.575915819021	950.767965617923	587.134270278448	823.078960198737	962.181758493858	312.334848351200	901.202118938216	787.134871765065	562.645020623409	863.883987799562	666.017033242049	636.077955930975	957.189393424162	626.986622429065	561.151668603408	979.779001288907	515.435134613690	586.047392715920	853.366776793066	746.151417052004	343.581700579576	758.002944057215	637.530297188176	284.135318732792	833.106895668723	554.459384219017	350.926409686407	827.598929902062	485.301464022194	362.548909936683	799.377847419605	415.678577785046	353.976809762749	708.674562785048	304.016402531779	300.563574066671	750.949653666467	192.803961481903	376.311259274438	908.990826593870	436.547502620508	590.205028647933	791.073631846506	386.609225902291	648.681588714354	785.218934319091	277.593919016736	598.705789061348	589.333945427256	201.209691109189	570.512542248237	762.136449005633	154.521229108179	607.128301464886	653.154123174054	143.537552495612	641.747775998043	835.672490940761	46.729389449515	630.226884651624	614.354559300599	39.052694839526	415.328492950463	691.015194677326	35.378137624916	337.272849954165	774.516183820918	95.651445520286	365.934248095031	902.990626035453	40.771631850380	342.094737297308	857.308639974437	1096.912670271449	137.769237381513	1076.513523700858	953.964822274108	135.562763753202	646.481793057705	1129.337144280219	720.586583152116	620.428128384762	869.089612971144	726.191215552464	
108	18.416285714286	596.864141727757	1018.253722293666	453.146539228522	811.370746904509	1436.360860650885	281.503562763720	891.699483225515	1364.225275439122	454.227377907324	792.434198057343	1444.029790303588	617.439594751240	795.214642855979	1500.089275635324	430.623425409966	813.461859730869	951.161624026266	588.133026194693	822.082093133513	961.971091699239	313.526810435228	899.848901521171	788.791276769912	563.334734738026	864.011188881265	667.409131745799	637.062282344402	957.068517187004	628.975610251559	561.803615315885	981.418313002522	518.920909025336	586.987846386384	850.224641653035	745.120329536782	345.063914312420	753.781753790890	637.679330929802	284.424853339619	827.128863965040	553.716241561508	351.734330257500	820.685608240836	484.942350015804	363.199528886788	792.688683796552	415.637563689666	354.307248824366	702.108947812858	304.010195080853	300.601274862365	744.267601383027	192.824280697995	376.499107778448	914.046137401688	438.022151353344	591.429105986644	799.125781048627	382.471528639719	650.496571167971	798.400914244273	273.273187921988	600.587875867108	606.508481680347	187.178792611869	573.184748206099	781.377050574158	149.344500760847	609.257278876823	673.363972345486	133.093280765573	644.481705165322	860.324243255496	45.617993182182	632.545227396367	607.684190876332	38.958537449563	415.337412918381	684.348464447237	35.319847993407	337.265888552688	767.839872524289	95.653486432690	365.963391773173	896.322261951240	40.893464759380	342.125899721407	862.069914691513	1097.876519905897	138.012296043421	1086.210539186469	962.913072048811	136.860910198148	638.373932775797	1133.258941591786	719.583147758033	607.225272774804	873.560040745116	725.499399557058	
109	18.429428571429	595.630465466015	1018.474266947877	452.879196447925	812.363498996677	1436.010978650955	282.050179564144	891.126213099449	1364.025320678028	455.560747990968	790.779385942224	1444.385141535089	617.763656643769	794.958122206234	1499.972402136199	430.955816679849	811.348837970374	951.337490825953	589.265451995080	821.158031673434	961.637603620576	314.839231516437	898.089993570749	789.736561746548	564.287142666754	863.206933752443	668.191588981073	638.211466938668	955.923265696020	630.082138179869	562.675922451951	981.782169793504	521.800062063683	588.078508998202	847.091583515580	744.028017076302	346.619438776932	749.607973326132	637.775818657109	284.702028862534	821.178220306800	552.940857684953	352.525468656164	813.836745062295	484.562230676554	363.789000833374	786.038423407292	415.564920558302	354.619315511715	695.570972877090	303.980326012761	300.630697631459	737.592475029365	192.815273988030	376.678701767965	918.228474760394	439.036626596613	592.823349735520	806.925754651562	377.565488965001	652.543862488146	811.855406579088	268.486406173668	602.692297729114	624.999474516200	172.122776684999	576.038032771524	801.497339776915	143.957286119417	611.680620851789	694.833837573789	122.040201629186	647.420723949276	886.001134583699	44.880567131137	635.192160056911	601.023882494278	38.856638802280	415.361093706036	677.676074204716	35.262728239083	337.262573074908	761.152599146994	95.644121947384	366.005084274084	889.648958889799	41.025358741734	342.161758893980	866.456079845841	1098.623096936334	138.501030912888	1095.075662302773	971.553575248353	138.493045721146	631.294644723589	1136.630024452689	718.704722362799	595.618249121215	877.481773011354	724.905027208397	
